<svg width="24" height="24" viewBox="0 0 24 24" fill="none" xmlns="http://www.w3.org/2000/svg">
<path d="M7.99967 17.9997C10.2087 17.9997 11.9995 19.7907 11.9997 21.9997H9.99967C9.9995 20.8953 9.10414 19.9997 7.99967 19.9997H5.99967C4.89536 19.9999 3.99985 20.8954 3.99967 21.9997H1.99967C1.99985 19.7908 3.79079 17.9999 5.99967 17.9997H7.99967ZM6.99967 11.9997C8.65642 11.9997 9.9995 13.343 9.99967 14.9997C9.99967 16.6565 8.65653 17.9997 6.99967 17.9997C5.34297 17.9995 3.99967 16.6564 3.99967 14.9997C3.99985 13.3431 5.34308 11.9999 6.99967 11.9997ZM13.238 15.8727C13.6647 15.9573 14.09 15.9976 14.5075 15.9977L14.5065 17.9977C13.9595 17.9976 13.4045 17.9446 12.8493 17.8346L11.8678 17.6403L12.2565 15.6784L13.238 15.8727ZM14.4958 0.997726C14.9061 0.997885 15.3211 1.02809 15.737 1.08952L16.153 1.16179L16.4714 1.23112C16.4862 1.23465 16.5015 1.23827 16.5163 1.24187C16.5636 1.2534 16.6109 1.26669 16.6579 1.27898C16.7353 1.29924 16.8129 1.32015 16.8893 1.34245C16.9346 1.35567 16.9801 1.36954 17.0251 1.38347C17.1139 1.411 17.2023 1.44014 17.2897 1.47038C17.3198 1.48077 17.3507 1.48994 17.3805 1.50066C17.4941 1.5414 17.6065 1.5853 17.7174 1.63054C17.7273 1.63454 17.7379 1.63821 17.7477 1.64226L17.7467 1.64323C18.7975 2.07636 19.7304 2.70781 20.5065 3.48405H20.5075C20.5108 3.48741 20.5139 3.49146 20.5173 3.4948C20.5988 3.57667 20.6785 3.66076 20.7565 3.74577C20.7814 3.77286 20.8062 3.80041 20.8307 3.8278C20.9007 3.90603 20.9698 3.98539 21.0368 4.06609C21.0635 4.09825 21.0897 4.1312 21.1159 4.16374C21.2628 4.34612 21.4025 4.53447 21.5339 4.7282C21.5559 4.76078 21.5776 4.79394 21.5993 4.82683C21.6577 4.91562 21.7151 5.00542 21.7702 5.09636C21.7863 5.12299 21.8012 5.15061 21.8171 5.17741C21.8654 5.25931 21.913 5.34195 21.9587 5.42546C21.9767 5.45849 21.9947 5.49179 22.0124 5.52507C22.0606 5.61606 22.1081 5.7077 22.153 5.80046C22.173 5.84181 22.1922 5.88377 22.2116 5.92546C22.2465 6.00071 22.2804 6.07669 22.3132 6.153C22.3255 6.18172 22.3392 6.21007 22.3512 6.23894H22.3493C22.8162 7.36067 23.0471 8.59156 22.9919 9.85808C22.9904 9.89192 22.9879 9.92575 22.986 9.95964C22.9731 10.1924 22.9512 10.4263 22.9186 10.6608C22.9118 10.7096 22.9038 10.7584 22.8962 10.8073C22.8783 10.9213 22.8602 11.0359 22.8376 11.1501C22.813 11.274 22.7842 11.3966 22.7546 11.5182C22.7483 11.544 22.7415 11.5697 22.735 11.5954C22.7059 11.7102 22.6759 11.8245 22.6423 11.9372C22.6378 11.9521 22.6331 11.9672 22.6286 11.9821C22.5956 12.0903 22.5601 12.1973 22.5231 12.3034C22.5124 12.3341 22.5009 12.3647 22.4899 12.3952C22.4516 12.5013 22.4121 12.6068 22.3698 12.7106C22.3652 12.7218 22.3617 12.7337 22.3571 12.7448L22.3551 12.7438C22.0293 13.5344 21.5922 14.2595 21.0641 14.9001C20.8904 15.1108 20.7055 15.3115 20.5133 15.5036L20.5143 15.5046C20.5041 15.5147 20.4923 15.5238 20.4821 15.5339C20.4045 15.6106 20.3261 15.6868 20.2458 15.7604C20.2324 15.7726 20.2191 15.7854 20.2057 15.7975C20.1143 15.8802 20.0202 15.9602 19.9255 16.0387C19.8983 16.0613 19.8699 16.083 19.8424 16.1051C19.7685 16.1648 19.6936 16.2238 19.6178 16.2809C19.5918 16.3006 19.566 16.3212 19.5397 16.3405C19.4372 16.416 19.333 16.4904 19.2272 16.5612C18.7661 16.8697 18.2745 17.1333 17.7604 17.3473L16.9919 15.5016C17.6786 15.2158 18.312 14.8131 18.863 14.3151C18.8817 14.2982 18.9001 14.2805 18.9186 14.2634C18.9707 14.2151 19.0224 14.1658 19.0729 14.1159C19.2297 13.9609 19.3803 13.7985 19.5212 13.6276C19.929 13.1328 20.2653 12.5719 20.5153 11.9587C20.6243 11.6914 20.7167 11.4138 20.7907 11.1266C20.8217 11.0064 20.8512 10.8848 20.8757 10.7614C20.9009 10.6338 20.9206 10.5058 20.9382 10.3786C20.9784 10.0869 20.9988 9.79714 20.9997 9.51042C21.0025 8.58854 20.8077 7.69639 20.4489 6.88249C20.3835 6.73422 20.314 6.58773 20.238 6.44499C20.1235 6.23034 19.9966 6.02241 19.859 5.82195C19.7033 5.59484 19.5328 5.37755 19.3493 5.17155C19.2675 5.07972 19.1834 4.98927 19.0964 4.90202C18.4989 4.30355 17.7798 3.81687 16.9684 3.48503C16.5874 3.32924 16.1849 3.20709 15.7643 3.1237C15.3375 3.03912 14.9123 2.99789 14.4948 2.99773L14.4958 0.997726ZM6.99967 13.9997C6.44765 13.9999 5.99985 14.4477 5.99967 14.9997C5.99967 15.5519 6.44754 15.9995 6.99967 15.9997C7.55196 15.9997 7.99967 15.552 7.99967 14.9997C7.9995 14.4475 7.55185 13.9997 6.99967 13.9997ZM19.1618 7.48698L13.0182 13.6305L9.83952 10.4528L11.2536 9.03874L13.0182 10.8024L17.7477 6.07292L19.1618 7.48698ZM8.49479 7.01335C8.33564 7.39949 8.21124 7.80808 8.12663 8.23503L7.93229 9.2155L5.97038 8.82683L6.16471 7.84636C6.27478 7.29094 6.43667 6.75757 6.64518 6.25163L8.49479 7.01335ZM12.0104 3.4948C11.2227 3.82258 10.5045 4.30279 9.90104 4.90593L8.48698 3.49187C9.2753 2.7039 10.2128 2.07635 11.2419 1.64812L12.0104 3.4948Z" fill="black"/>
</svg>
