<svg width="20" height="20" viewBox="0 0 20 20" fill="none" xmlns="http://www.w3.org/2000/svg">
<path d="M17.4872 14.5833C17.5129 14.999 17.5 15.4172 17.5 15.8333H12.9167C12.9167 17.4442 11.6109 18.75 10 18.75C8.3892 18.75 7.08337 17.4442 7.08337 15.8333H2.50003C2.50003 15.4172 2.48721 14.999 2.51284 14.5833C2.60701 13.0562 3.21528 11.6682 4.1667 10.5903V7.5C4.1667 4.27834 6.77837 1.66667 10 1.66667C13.2217 1.66667 15.8334 4.27834 15.8334 7.5V10.5903C16.7848 11.6682 17.3931 13.0562 17.4872 14.5833ZM8.33337 15.8333C8.33337 16.7538 9.07956 17.5 10 17.5C10.9205 17.5 11.6667 16.7538 11.6667 15.8333H8.33337ZM5.4167 11.063C4.52139 12.0774 3.87076 13.2 3.76578 14.5833H16.2343C16.1293 13.2 15.4787 12.0774 14.5834 11.063V7.5C14.5834 4.96869 12.5313 2.91667 10 2.91667C7.46873 2.91667 5.4167 4.96869 5.4167 7.5V11.063Z" fill="#333333"/>
</svg>
