<svg width="24" height="24" viewBox="0 0 24 24" fill="none" xmlns="http://www.w3.org/2000/svg">
<path d="M4 5C4 3.89543 4.89543 3 6 3H18C19.1046 3 20 3.89543 20 5V19C20 20.1046 19.1046 21 18 21H6C4.89543 21 4 20.1046 4 19V5Z" stroke="#2758B9" stroke-width="1.5"/>
<path d="M4 15L8.29289 10.7071C8.68342 10.3166 9.31658 10.3166 9.70711 10.7071L13 14L15.2929 11.7071C15.6834 11.3166 16.3166 11.3166 16.7071 12.7071L20 16V19C20 20.1046 19.1046 21 18 21H6C4.89543 21 4 20.1046 4 19V15Z" fill="#2758B9"/>
<circle cx="8.5" cy="8.5" r="1.5" fill="#2758B9"/>
</svg>
