<svg width="16" height="16" viewBox="0 0 16 16" fill="none" xmlns="http://www.w3.org/2000/svg">
<path d="M1.64453 3.8208L3.19808 5.37435L5.68497 2.88747L4.97786 2.18036L3.19808 3.96014L2.35164 3.11369L1.64453 3.8208Z" fill="#333333"/>
<path d="M13.9982 4.50023H6.66487V3.50023H13.9982V4.50023Z" fill="#333333"/>
<path d="M3.33154 9.00002C3.88383 9.00002 4.33154 8.5523 4.33154 8.00002C4.33154 7.44774 3.88383 7.00002 3.33154 7.00002C2.77926 7.00002 2.33154 7.44774 2.33154 8.00002C2.33154 8.5523 2.77926 9.00002 3.33154 9.00002Z" fill="#333333"/>
<path d="M6.66488 8.50002H13.9982V7.50002H6.66488V8.50002Z" fill="#333333"/>
<path d="M3.33154 13C3.88383 13 4.33154 12.5523 4.33154 12C4.33154 11.4477 3.88383 11 3.33154 11C2.77926 11 2.33154 11.4477 2.33154 12C2.33154 12.5523 2.77926 13 3.33154 13Z" fill="#333333"/>
<path d="M6.66488 12.5H13.9982V11.5H6.66488V12.5Z" fill="#333333"/>
</svg>
