<svg width="16" height="16" viewBox="0 0 16 16" fill="none" xmlns="http://www.w3.org/2000/svg">
<path d="M14.6672 7.99998C14.6672 3.84548 10.9007 0.599954 6.6995 1.46021L6.89357 2.4412C10.3673 1.73331 13.6672 4.47222 13.6672 7.99998C13.6672 9.96488 12.6668 11.6962 11.1484 12.7128L11.7047 13.5438C13.4911 12.3478 14.6672 10.3112 14.6672 7.99998Z" fill="#333333"/>
<path d="M4.29648 2.45621C3.56947 2.94293 2.94353 3.56887 2.45681 4.29588L3.28778 4.8522C3.70178 4.23381 4.23441 3.70118 4.8528 3.28718L4.29648 2.45621Z" fill="#333333"/>
<path d="M1.46081 6.6989L2.4418 6.89297C2.30045 7.60744 2.30045 8.39253 2.4418 9.10699L1.46081 9.30106C1.29431 8.45946 1.29431 7.54051 1.46081 6.6989Z" fill="#333333"/>
<path d="M4.29648 13.5438C3.56947 13.057 2.94353 12.4311 2.45681 11.7041L3.28778 11.1478C3.70178 11.7662 4.23441 12.2988 4.8528 12.7128L4.29648 13.5438Z" fill="#333333"/>
<path d="M6.6995 14.5398C7.54111 14.7062 8.46006 14.7062 9.30166 14.5398L9.10759 13.5588C8.39313 13.7001 7.60804 13.7001 6.89357 13.5588L6.6995 14.5398Z" fill="#333333"/>
</svg>
