<svg width="16" height="16" viewBox="0 0 16 16" fill="none" xmlns="http://www.w3.org/2000/svg">
<path d="M7.9987 10.666C9.47146 10.666 10.6654 9.47212 10.6654 7.99936C10.6654 6.5266 9.47146 5.33269 7.9987 5.33269C6.52594 5.33269 5.33203 6.5266 5.33203 7.99936C5.33203 9.47212 6.52594 10.666 7.9987 10.666ZM7.9987 6.33269C8.91917 6.33269 9.66536 7.07888 9.66536 7.99936C9.66536 8.91983 8.91917 9.66603 7.9987 9.66603C7.07822 9.66603 6.33203 8.91983 6.33203 7.99936C6.33203 7.07888 7.07822 6.33269 7.9987 6.33269Z" fill="#333333"/>
<path d="M14.6654 8.00001C14.6654 8.00001 11.9381 3.33334 7.9987 3.33334C4.0593 3.33334 1.33203 8.00001 1.33203 8.00001C1.33203 8.00001 4.0593 12.6667 7.9987 12.6667C11.9381 12.6667 14.6654 8.00001 14.6654 8.00001ZM2.52779 8.00001C3.77622 6.22418 5.68972 4.33334 7.9987 4.33334C10.3077 4.33334 12.2212 6.22419 13.4696 8.00001C12.2212 9.77583 10.3077 11.6667 7.9987 11.6667C5.65979 11.6667 3.78262 9.78494 2.52779 8.00001Z" fill="#333333"/>
</svg>
