<svg width="16" height="16" viewBox="0 0 16 16" fill="none" xmlns="http://www.w3.org/2000/svg">
<path d="M4.66667 7.5H6V8.83334H4.66667V7.5Z" fill="#333333"/>
<path d="M8.66667 7.5H7.33333V8.83334H8.66667V7.5Z" fill="#333333"/>
<path d="M10 7.5H11.3333V8.83334H10V7.5Z" fill="#333333"/>
<path d="M6 10.1667H4.66667V11.5H6V10.1667Z" fill="#333333"/>
<path d="M7.33333 10.1667H8.66667V11.5H7.33333V10.1667Z" fill="#333333"/>
<path d="M11.3333 10.1667H10V11.5H11.3333V10.1667Z" fill="#333333"/>
<path d="M2 2.00001H4.5V0.666672H5.5V2.00001H10.5V0.666672H11.5V2.00001H14V14H2V2.00001ZM4.5 3.00001H3V5H13V3.00001H11.5V4H10.5V3.00001H5.5V4H4.5V3.00001ZM13 6H3V13H13V6Z" fill="#333333"/>
</svg>
