<svg width="16" height="16" viewBox="0 0 16 16" fill="none" xmlns="http://www.w3.org/2000/svg">
<path d="M7.50001 4.86801C6.57568 5.00602 5.76312 5.56061 5.76312 6.61142C5.76312 7.39885 6.22034 7.93227 7.17712 8.16935C8.30323 8.45723 8.56571 8.53343 8.90439 8.6435C9.21767 8.74511 9.40394 9.00759 9.40394 9.3886C9.40394 9.92202 8.93826 10.303 8.12542 10.303C7.20252 10.303 6.60136 9.87122 6.59289 9.00759H5.53451C5.55665 10.2175 6.30516 10.9581 7.50001 11.1287V12.3333H8.50001V11.1426C9.67975 11.0101 10.4623 10.3357 10.4623 9.27006C10.4623 8.33022 9.72569 7.83914 9.2092 7.70366L7.592 7.28031C7.07551 7.14484 6.8215 6.88236 6.8215 6.48441C6.8215 5.97639 7.29566 5.69698 7.93068 5.69698C8.74352 5.69698 9.16687 6.04413 9.2346 6.75536V6.76382H10.293C10.2857 5.71395 9.54388 5.04075 8.50001 4.87398V3.66668H7.50001V4.86801Z" fill="black"/>
<path d="M8.00001 14.6667C11.6819 14.6667 14.6667 11.6819 14.6667 8.00001C14.6667 4.31811 11.6819 1.33334 8.00001 1.33334C4.31811 1.33334 1.33334 4.31811 1.33334 8.00001C1.33334 11.6819 4.31811 14.6667 8.00001 14.6667ZM8.00001 2.33334C11.1296 2.33334 13.6667 4.8704 13.6667 8.00001C13.6667 11.1296 11.1296 13.6667 8.00001 13.6667C4.8704 13.6667 2.33334 11.1296 2.33334 8.00001C2.33334 4.8704 4.8704 2.33334 8.00001 2.33334Z" fill="black"/>
</svg>
