<svg width="20" height="20" viewBox="0 0 20 20" fill="none" xmlns="http://www.w3.org/2000/svg">
<path d="M7.50098 13.3333C8.4213 13.3335 9.16699 14.08 9.16699 15.0003C9.16683 15.9206 8.4212 16.6662 7.50098 16.6664C6.5806 16.6664 5.83415 15.9207 5.83398 15.0003C5.83398 14.0799 6.5805 13.3333 7.50098 13.3333ZM12.501 13.3333C13.4213 13.3335 14.167 14.08 14.167 15.0003C14.1668 15.9206 13.4212 16.6662 12.501 16.6664C11.5806 16.6664 10.8341 15.9207 10.834 15.0003C10.834 14.0799 11.5805 13.3333 12.501 13.3333ZM7.50098 8.33334C8.4213 8.33352 9.16699 9.07997 9.16699 10.0003C9.16683 10.9206 8.4212 11.6662 7.50098 11.6664C6.5806 11.6664 5.83415 10.9207 5.83398 10.0003C5.83398 9.07986 6.5805 8.33334 7.50098 8.33334ZM12.501 8.33334C13.4213 8.33352 14.167 9.07997 14.167 10.0003C14.1668 10.9206 13.4212 11.6662 12.501 11.6664C11.5806 11.6664 10.8341 10.9207 10.834 10.0003C10.834 9.07986 11.5805 8.33334 12.501 8.33334ZM7.50098 3.33334C8.4213 3.33352 9.16699 4.07997 9.16699 5.00034C9.16682 5.92055 8.42119 6.66618 7.50098 6.66635C6.58061 6.66635 5.83416 5.92066 5.83398 5.00034C5.83398 4.07986 6.5805 3.33334 7.50098 3.33334ZM12.501 3.33334C13.4213 3.33352 14.167 4.07997 14.167 5.00034C14.1668 5.92056 13.4212 6.66617 12.501 6.66635C11.5806 6.66635 10.8341 5.92067 10.834 5.00034C10.834 4.07986 11.5805 3.33334 12.501 3.33334Z" fill="black"/>
</svg>
