<svg width="20" height="20" viewBox="0 0 20 20" fill="none" xmlns="http://www.w3.org/2000/svg">
<path fill-rule="evenodd" clip-rule="evenodd" d="M14.6547 1.66668C15.3056 1.01581 16.3609 1.01581 17.0118 1.66668L18.3333 2.98817C18.9841 3.63904 18.9841 4.69432 18.3333 5.34519L6.58573 17.0927C6.37213 17.3063 6.1045 17.4579 5.81145 17.5311L4.04946 17.9716C2.82882 18.2768 1.72317 17.1711 2.02833 15.9505L2.46883 14.1885C2.54209 13.8954 2.69362 13.6278 2.90722 13.4142L14.6547 1.66668ZM15.8333 2.84519L4.08573 14.5927L3.64523 16.3547L5.40722 15.9142L17.1547 4.16668L15.8333 2.84519Z" fill="#333333"/>
<path fill-rule="evenodd" clip-rule="evenodd" d="M15.244 7.25594L13.1607 5.17261L14.3392 3.99409L16.4225 6.07743L15.244 7.25594Z" fill="#333333"/>
</svg>
