<svg width="12" height="12" viewBox="0 0 12 12" fill="none" xmlns="http://www.w3.org/2000/svg">
<g clip-path="url(#clip0_59444_7613)">
<rect x="3" y="0.75" width="9" height="10.5" rx="0.0703125" fill="#2FB776"/>
<path d="M3 8.625H12V11.1797C12 11.2185 11.9685 11.25 11.9297 11.25H3.07031C3.03148 11.25 3 11.2185 3 11.1797V8.625Z" fill="url(#paint0_linear_59444_7613)"/>
<rect x="7.5" y="6" width="4.5" height="2.625" fill="#229C5B"/>
<rect x="7.5" y="3.375" width="4.5" height="2.625" fill="#27AE68"/>
<path d="M3 0.820313C3 0.78148 3.03148 0.75 3.07031 0.75H7.5V3.375H3V0.820313Z" fill="#1D854F"/>
<rect x="3" y="3.375" width="4.5" height="2.625" fill="#197B43"/>
<rect x="3" y="6" width="4.5" height="2.625" fill="#1B5B38"/>
<path d="M3 3.48047C3 3.42222 3.04722 3.375 3.10547 3.375H7.39453C7.45278 3.375 7.5 3.42222 7.5 3.48047V10.0195C7.5 10.0778 7.45278 10.125 7.39453 10.125H3V3.48047Z" fill="black" fill-opacity="0.3"/>
<rect y="2.625" width="6.75" height="6.75" rx="0.0703125" fill="url(#paint1_linear_59444_7613)"/>
<path d="M4.875 7.875L3.8183 5.9625L4.82861 4.125H4.00387L3.38015 5.29821L2.76675 4.125H1.91624L2.9317 5.9625L1.875 7.875H2.69974L3.36469 6.63214L4.02448 7.875H4.875Z" fill="white"/>
</g>
<defs>
<linearGradient id="paint0_linear_59444_7613" x1="3" y1="9.9375" x2="12" y2="9.9375" gradientUnits="userSpaceOnUse">
<stop stop-color="#163C27"/>
<stop offset="1" stop-color="#2A6043"/>
</linearGradient>
<linearGradient id="paint1_linear_59444_7613" x1="0" y1="6" x2="6.75" y2="6" gradientUnits="userSpaceOnUse">
<stop stop-color="#185A30"/>
<stop offset="1" stop-color="#176F3D"/>
</linearGradient>
<clipPath id="clip0_59444_7613">
<rect width="12" height="12" fill="white"/>
</clipPath>
</defs>
</svg>
