<svg width="20" height="20" viewBox="0 0 20 20" fill="none" xmlns="http://www.w3.org/2000/svg">
<path d="M12.0833 8.75002C13.4796 8.75002 14.6468 7.76885 14.9329 6.45835H17.5V5.20835H14.9329C14.6468 3.89786 13.4796 2.91669 12.0833 2.91669C10.687 2.91669 9.5199 3.89786 9.23379 5.20835H2.5V6.45835H9.23379C9.5199 7.76885 10.687 8.75002 12.0833 8.75002ZM12.0833 4.16669C13.0038 4.16669 13.75 4.91288 13.75 5.83335C13.75 6.75383 13.0038 7.50002 12.0833 7.50002C11.1629 7.50002 10.4167 6.75383 10.4167 5.83335C10.4167 4.91288 11.1629 4.16669 12.0833 4.16669Z" fill="#2758B9"/>
<path d="M17.5 14.7917H10.7662C10.4801 16.1022 9.31297 17.0834 7.91667 17.0834C6.52037 17.0834 5.35323 16.1022 5.06712 14.7917H2.5V13.5417H5.06712C5.35323 12.2312 6.52037 11.25 7.91667 11.25C9.31297 11.25 10.4801 12.2312 10.7662 13.5417H17.5V14.7917ZM7.91667 15.8334C8.83714 15.8334 9.58333 15.0872 9.58333 14.1667C9.58333 13.2462 8.83714 12.5 7.91667 12.5C6.99619 12.5 6.25 13.2462 6.25 14.1667C6.25 15.0872 6.99619 15.8334 7.91667 15.8334Z" fill="#2758B9"/>
</svg>
