<svg width="16" height="16" viewBox="0 0 16 16" fill="none" xmlns="http://www.w3.org/2000/svg">
<path fill-rule="evenodd" clip-rule="evenodd" d="M3.33333 2.43658V7.68628C3.86307 7.51289 4.58679 7.33332 5.33333 7.33332C5.75917 7.33332 6.24643 7.43679 6.71708 7.56515C7.1933 7.69503 7.70781 7.86653 8.20036 8.03071L8.21082 8.0342C8.7151 8.20229 9.19667 8.36261 9.63375 8.48181C10.0798 8.60345 10.4258 8.66666 10.6667 8.66666C11.416 8.66666 12.1971 8.41585 12.6667 8.23006V3.07868C12.6667 3.07849 12.6667 3.07831 12.6667 3.07816C12.6667 3.0769 12.6667 3.07655 12.6652 3.07397C12.6625 3.06925 12.6544 3.05828 12.637 3.0466C12.5977 3.02026 12.5535 3.01659 12.5245 3.02553C12.0142 3.18259 11.3509 3.33332 10.6667 3.33332C10.2408 3.33332 9.75357 3.22986 9.28292 3.1015C8.80669 2.97162 8.29216 2.80011 7.79961 2.63592L7.78918 2.63245C7.2849 2.46435 6.80333 2.30403 6.36626 2.18483C5.92024 2.06319 5.57416 1.99999 5.33333 1.99999C4.58396 1.99999 3.80285 2.25079 3.33333 2.43658ZM3.33333 9.10325C3.44114 9.06058 3.56857 9.01319 3.71082 8.96578C4.17754 8.8102 4.7675 8.66666 5.33333 8.66666C5.57416 8.66666 5.92024 8.72986 6.36626 8.8515C6.80333 8.9707 7.2849 9.13102 7.78918 9.29911L7.79964 9.3026C8.29219 9.46678 8.8067 9.63829 9.28292 9.76816C9.75357 9.89652 10.2408 9.99999 10.6667 9.99999C11.6953 9.99999 12.6903 9.65824 13.206 9.45041C13.7149 9.24532 14 8.75411 14 8.25463V3.07868C14 2.06815 12.969 1.49361 12.1322 1.7512C11.691 1.887 11.1684 1.99999 10.6667 1.99999C10.4258 1.99999 10.0798 1.93679 9.63375 1.81515C9.19667 1.69595 8.7151 1.53563 8.21082 1.36753L8.20039 1.36406C7.70783 1.19987 7.19331 1.02836 6.71708 0.898481C6.24643 0.770122 5.75917 0.666656 5.33333 0.666656C4.30471 0.666656 3.30973 1.0084 2.79404 1.21624C2.28514 1.42132 2 1.91254 2 2.41201V15.3333H3.33333V9.10325Z" fill="black"/>
</svg>
