<svg width="20" height="20" viewBox="0 0 20 20" fill="none" xmlns="http://www.w3.org/2000/svg">
<path d="M9.99959 10.4167C11.1502 10.4167 12.0829 9.48393 12.0829 8.33333C12.0829 7.18274 11.1502 6.25 9.99959 6.25C8.849 6.25 7.91626 7.18274 7.91626 8.33333H6.66626C6.66626 6.49238 8.15864 5 9.99959 5C11.8405 5 13.3329 6.49238 13.3329 8.33333C13.3329 9.9608 12.1666 11.3159 10.6242 11.6082V12.5H9.37419V10.4167H9.99959Z" fill="#333333"/>
<path d="M10.8329 14.5833C10.8329 15.0436 10.4598 15.4167 9.99959 15.4167C9.53936 15.4167 9.16626 15.0436 9.16626 14.5833C9.16626 14.1231 9.53936 13.75 9.99959 13.75C10.4598 13.75 10.8329 14.1231 10.8329 14.5833Z" fill="#333333"/>
<path d="M9.99959 18.3341C14.602 18.3341 18.3329 14.6031 18.3329 10.0008C18.3329 5.39842 14.602 1.66748 9.99959 1.66748C5.39722 1.66748 1.66626 5.39842 1.66626 10.0008C1.66626 14.6031 5.39722 18.3341 9.99959 18.3341ZM9.99959 2.91748C13.9116 2.91748 17.0829 6.08878 17.0829 10.0008C17.0829 13.9128 13.9116 17.0841 9.99959 17.0841C6.08757 17.0841 2.91626 13.9128 2.91626 10.0008C2.91626 6.08878 6.08757 2.91748 9.99959 2.91748Z" fill="#333333"/>
</svg>
