<svg width="16" height="16" viewBox="0 0 16 16" fill="none" xmlns="http://www.w3.org/2000/svg">
<path d="M7.49992 7.00001L7.49992 11.6667H8.49992V7.00001H7.49992Z" fill="#888888"/>
<path d="M7.99992 6.00001C8.36811 6.00001 8.66658 5.70153 8.66658 5.33334C8.66658 4.96515 8.36811 4.66668 7.99992 4.66668C7.63173 4.66668 7.33325 4.96515 7.33325 5.33334C7.33325 5.70153 7.63173 6.00001 7.99992 6.00001Z" fill="#888888"/>
<path d="M14.6666 8.00001C14.6666 11.6819 11.6818 14.6667 7.99992 14.6667C4.31802 14.6667 1.33325 11.6819 1.33325 8.00001C1.33325 4.31811 4.31802 1.33334 7.99992 1.33334C11.6818 1.33334 14.6666 4.31811 14.6666 8.00001ZM13.6666 8.00001C13.6666 4.8704 11.1295 2.33334 7.99992 2.33334C4.8703 2.33334 2.33325 4.8704 2.33325 8.00001C2.33325 11.1296 4.8703 13.6667 7.99992 13.6667C11.1295 13.6667 13.6666 11.1296 13.6666 8.00001Z" fill="#888888"/>
</svg>
