<svg width="16" height="16" viewBox="0 0 16 16" fill="none" xmlns="http://www.w3.org/2000/svg">
<path d="M5.66667 12.6667C6.51667 12.6667 7.3136 12.4394 8 12.0424C8.68641 12.4394 9.48333 12.6667 10.3333 12.6667C12.9107 12.6667 15 10.5773 15 8.00001C15 5.42268 12.9107 3.33334 10.3333 3.33334C9.48336 3.33334 8.68645 3.56058 8.00006 3.95762C7.31367 3.56059 6.51664 3.33334 5.66667 3.33334C3.08934 3.33334 1 5.42268 1 8.00001C1 10.5773 3.08934 12.6667 5.66667 12.6667ZM7.10782 4.62741C6.24749 5.45047 5.70154 6.59946 5.66828 7.87607C5.66721 7.91723 5.66667 7.9586 5.66667 8.00001C5.66667 7.99998 5.66667 8.00004 5.66667 8.00001C5.66667 9.32609 6.21978 10.523 7.10788 11.3726C6.66548 11.5619 6.17831 11.6667 5.66667 11.6667C3.64162 11.6667 2 10.0251 2 8.00001C2 5.97497 3.64162 4.33334 5.66667 4.33334C6.17829 4.33334 6.66544 4.43813 7.10782 4.62741ZM10.3269 7.75294C10.2629 6.52567 9.72476 5.42392 8.89218 4.62741C9.33456 4.43813 9.82171 4.33334 10.3333 4.33334C12.3584 4.33334 14 5.97497 14 8.00001C14 10.0251 12.3584 11.6667 10.3333 11.6667C9.82169 11.6667 9.33452 11.5619 8.89213 11.3726C9.72472 10.5761 10.2629 9.47435 10.3269 8.24708C10.3312 8.16527 10.3333 8.08289 10.3333 8.00001C10.3333 7.99999 10.3333 8.00003 10.3333 8.00001C10.3333 7.99485 10.3333 7.98963 10.3333 7.98448C10.3331 7.90684 10.3309 7.82964 10.3269 7.75294Z" fill="black"/>
</svg>
