<svg width="16" height="16" viewBox="0 0 16 16" fill="none" xmlns="http://www.w3.org/2000/svg">
<path d="M3.19808 5.37402L1.64453 3.82046L2.35164 3.11336L3.19808 3.9598L4.97786 2.18002L5.68497 2.88713L3.19808 5.37402Z" fill="black"/>
<path d="M6.66487 4.49989H13.9982V3.49989H6.66487V4.49989Z" fill="black"/>
<path d="M3.19808 9.37402L1.64453 7.82046L2.35164 7.11336L3.19808 7.9598L4.97786 6.18002L5.68497 6.88713L3.19808 9.37402Z" fill="black"/>
<path d="M6.66487 8.49989H13.9982V7.49989H6.66487V8.49989Z" fill="black"/>
<path d="M1.64453 11.8205L3.19808 13.374L5.68497 10.8871L4.97786 10.18L3.19808 11.9598L2.35164 11.1134L1.64453 11.8205Z" fill="black"/>
<path d="M13.9982 12.4999H6.66487V11.4999H13.9982V12.4999Z" fill="black"/>
</svg>
