<svg width="24" height="24" viewBox="0 0 24 24" fill="none" xmlns="http://www.w3.org/2000/svg">
<path d="M3 12.0001C3 13.1041 3.896 14.0001 5 14.0001C6.104 14.0001 7 13.1041 7 12.0001C7 10.896 6.104 10 5 10C3.896 10 3 10.896 3 12.0001Z" fill="#888888"/>
<path d="M9.9999 12C9.9999 10.896 10.8959 10 11.9998 10C13.1038 10 13.9998 10.896 13.9998 12C13.9998 13.104 13.1038 14 11.9998 14C10.8959 14 9.9999 13.104 9.9999 12Z" fill="#888888"/>
<path d="M17 12.0001C17 10.896 17.896 10 19 10C20.104 10 21 10.896 21 12.0001C21 13.1041 20.104 14.0001 19 14.0001C17.896 14.0001 17 13.1041 17 12.0001Z" fill="#888888"/>
</svg>
