<svg width="24" height="24" viewBox="0 0 24 24" fill="none" xmlns="http://www.w3.org/2000/svg">
<path d="M18.75 9.25H14.5V7.75H18.75V9.25Z" fill="#888888"/>
<path d="M14.5 16.25H18.75V14.75H14.5V16.25Z" fill="#888888"/>
<path d="M18.75 12.75H14.5V11.25H18.75V12.75Z" fill="#888888"/>
<path d="M2 5.5C2 4.67157 2.67157 4 3.5 4H20.5C21.3284 4 22 4.67157 22 5.5V18.5C22 19.3284 21.3284 20 20.5 20H3.5C2.67157 20 2 19.3284 2 18.5V5.5ZM3.5 18.5H11.25V5.5H3.5L3.5 18.5ZM20.5 18.5V5.5H12.75V18.5H20.5Z" fill="#888888"/>
</svg>
