<svg width="16" height="16" viewBox="0 0 16 16" fill="none" xmlns="http://www.w3.org/2000/svg">
<path d="M7.9999 7.4949C7.52322 7.81394 6.95002 8 6.33335 8C4.6765 8 3.33335 6.65685 3.33335 5C3.33335 3.34315 4.6765 2 6.33335 2C6.95002 2 7.52322 2.18606 7.9999 2.5051C8.47657 2.18606 9.04977 2 9.66644 2C11.3233 2 12.6664 3.34315 12.6664 5C12.6664 6.65685 11.3233 8 9.66644 8C9.04977 8 8.47657 7.81394 7.9999 7.4949ZM8.74988 6.77809C9.02445 6.91991 9.33609 7 9.66644 7C10.771 7 11.6664 6.10457 11.6664 5C11.6664 3.89543 10.771 3 9.66644 3C9.33609 3 9.02445 3.08009 8.74988 3.22191C9.11662 3.7195 9.33335 4.33444 9.33335 5C9.33335 5.66556 9.11662 6.2805 8.74988 6.77809ZM6.33335 3C5.22878 3 4.33335 3.89543 4.33335 5C4.33335 6.10457 5.22878 7 6.33335 7C7.43792 7 8.33335 6.10457 8.33335 5C8.33335 3.89543 7.43792 3 6.33335 3Z" fill="black"/>
<path d="M1.66669 14V13.3333C1.66669 13.2213 1.67064 13.1101 1.67841 13C1.84932 10.5782 3.8681 8.66667 6.33335 8.66667C6.92051 8.66667 7.48233 8.7751 7.9999 8.97304C8.51746 8.7751 9.07928 8.66667 9.66644 8.66667C12.1317 8.66667 14.1505 10.5782 14.3214 13C14.3292 13.1101 14.3331 13.2213 14.3331 13.3333V14H1.66669ZM9.24986 9.69007C10.2357 10.4803 10.8939 11.6623 10.9883 13H13.3182C13.1497 11.1312 11.5791 9.66667 9.66644 9.66667C9.52558 9.66667 9.38658 9.67461 9.24986 9.69007ZM9.98507 13C9.81666 11.1312 8.24603 9.66667 6.33335 9.66667C4.42067 9.66667 2.85004 11.1312 2.68163 13H9.98507Z" fill="black"/>
</svg>
