<svg width="17" height="17" viewBox="0 0 17 17" fill="none" xmlns="http://www.w3.org/2000/svg">
<path fill-rule="evenodd" clip-rule="evenodd" d="M0 1.66667C0 0.746192 0.746193 0 1.66667 0H10.9585C11.3784 0 11.7828 0.158469 12.0908 0.443727L15.7751 3.85507C16.1158 4.1705 16.3094 4.61374 16.3094 5.07801V15.0566C16.3094 15.9771 15.5633 16.7233 14.6428 16.7233H1.66667C0.746193 16.7233 0 15.9771 0 15.0566V1.66667ZM1.66667 1.66667V15.0566H11.4728V10.9982L4.88375 10.9982V15.0566H3.21709V10.9982C3.21709 10.0777 3.96328 9.33154 4.88375 9.33154H11.4728C12.3933 9.33154 13.1394 10.0777 13.1394 10.9982V15.0566H14.6428V5.07801L10.9585 1.66667H1.66667ZM2.72314 3.77854V1.68166H4.3898V3.77854L9.22601 3.77854V1.68166H10.8927V3.77854C10.8927 4.69902 10.1465 5.44521 9.22601 5.44521H4.3898C3.46933 5.44521 2.72314 4.69901 2.72314 3.77854Z" fill="#666666"/>
</svg>
