<svg width="32" height="32" viewBox="0 0 32 32" fill="none" xmlns="http://www.w3.org/2000/svg">
<path d="M10 18.8889C11.5955 18.8889 12.8889 17.5955 12.8889 16C12.8889 14.4045 11.5955 13.1111 10 13.1111C8.40451 13.1111 7.11111 14.4045 7.11111 16C7.11111 17.5955 8.40451 18.8889 10 18.8889Z" fill="#CC0000"/>
<path d="M18.6667 16C18.6667 20.7865 14.7865 24.6667 10 24.6667C5.21353 24.6667 1.33333 20.7865 1.33333 16C1.33333 11.2135 5.21353 7.33333 10 7.33333C14.7865 7.33333 18.6667 11.2135 18.6667 16ZM4.22222 16C4.22222 19.191 6.80902 21.7778 10 21.7778C13.191 21.7778 15.7778 19.191 15.7778 16C15.7778 12.809 13.191 10.2222 10 10.2222C6.80902 10.2222 4.22222 12.809 4.22222 16Z" fill="#CC0000"/>
<path d="M26.8717 10.8444H24.1461L24.1453 14.6376L20.3516 14.6389V17.3647L24.1453 17.3644L24.1461 21.1592H26.8717L26.8707 17.3644L30.6664 17.3647V14.6389L26.8707 14.6376L26.8717 10.8444Z" fill="#272425"/>
</svg>
