<svg width="32" height="32" viewBox="0 0 32 32" fill="none" xmlns="http://www.w3.org/2000/svg">
<path d="M16.0977 17.9916V6.58637L24.1183 6.58334C25.9284 10.1157 25.0747 17.9916 18.6965 17.9916C17.8988 17.9916 16.8949 17.9914 16.0977 17.9916Z" fill="#5B3425"/>
<path d="M15.6232 17.9195C10.9339 17.7466 7.80907 16.3182 7.1875 16.1417V10.6345C7.1875 4.59293 11.8461 2.00522 15.6232 2.00522V17.9195Z" fill="#77564A"/>
<path d="M5.32812 23.9997C7.76052 27.2401 11.6346 29.3364 15.9983 29.3364C20.0678 29.3364 23.7116 27.5132 26.1572 24.639C23.3896 22.244 19.0669 21.0034 14.2208 21.0034C10.8349 21.0034 7.53012 21.9903 5.32812 23.9997Z" fill="#CC0000"/>
<path d="M12 12C12 18.6667 14.6663 20.3333 17.6663 20.3333C24 20.3333 23.9997 11.6667 21.6667 7.66666L12 12Z" fill="#CEAF8C"/>
<path d="M18.668 22V15.5334L19.8887 15.2063L18.5083 10.0547L16.2244 10.6667H11.3346V11.6943C10.3887 11.853 9.66797 12.6757 9.66797 13.6667C9.66797 14.6577 10.3887 15.4803 11.3346 15.639V22C11.3346 22 12.668 23 15.0013 23C17.3346 23 18.668 22 18.668 22Z" fill="#E5D7C5"/>
<path d="M11.332 14.9577C10.757 14.8096 10.332 14.2876 10.332 13.6663C10.332 13.045 10.757 12.523 11.332 12.375V14.9577Z" fill="#CEAF8C"/>
<path d="M17.3135 22.6428C18.1913 22.3557 18.6655 22 18.6655 22V20.2549C18.3513 20.3064 18.0181 20.3333 17.6653 20.3333C16.7086 20.3333 15.7858 20.1638 14.9727 19.7168L17.3135 22.6428Z" fill="#CEAF8C"/>
<path d="M20.3333 13.8324C20.3333 13.9375 20.3528 14.0381 20.3884 14.1307C20.4324 14.1077 20.4775 14.0866 20.5236 14.0675C20.7218 13.9854 20.939 13.9401 21.1668 13.9401C21.3947 13.9401 21.6119 13.9854 21.81 14.0675C21.856 14.0865 21.9011 14.1076 21.9449 14.1305C21.9805 14.038 22 13.9374 22 13.8324C22 13.3726 21.6269 13 21.1667 13C20.7064 13 20.3333 13.3726 20.3333 13.8324Z" fill="black"/>
<path d="M16 13.8325C16 13.9375 16.0195 14.038 16.055 14.1306C16.0989 14.1076 16.1439 14.0866 16.19 14.0675C16.3881 13.9854 16.6053 13.9401 16.8331 13.9401C17.061 13.9401 17.2782 13.9854 17.4763 14.0675C17.5225 14.0866 17.5676 14.1077 17.6116 14.1307C17.6472 14.0381 17.6667 13.9376 17.6667 13.8325C17.6667 13.3727 17.2936 13 16.8333 13C16.3731 13 16 13.3727 16 13.8325Z" fill="black"/>
<path d="M20.5536 16.6667C20.2791 17.4435 19.5383 18 18.6674 18C17.7966 18 17.0558 17.4435 16.7812 16.6667H20.5536Z" fill="white"/>
<path d="M10.1439 5.94257L15.6231 2.00259H16.5443C19.497 2.00259 22.9889 3.58432 24.3712 7.16195C20.0541 11.3003 13.4615 13.2399 7.61328 13.2399L10.1439 5.94257Z" fill="#77564A"/>
</svg>
