<svg width="24" height="24" viewBox="0 0 24 24" fill="none" xmlns="http://www.w3.org/2000/svg">
<path d="M7.22672 15.7121L10.9387 12.0002L7.22649 8.28793L8.28715 7.22727L11.9994 10.9396L15.7121 7.22692L16.7728 8.28758L13.06 12.0003L16.7723 15.7127L15.7117 16.7733L11.9993 13.0609L8.28738 16.7727L7.22672 15.7121Z" fill="#888888"/>
<path d="M12 22C17.5228 22 22 17.5228 22 12C22 6.47715 17.5228 2 12 2C6.47715 2 2 6.47715 2 12C2 17.5228 6.47715 22 12 22ZM12 3.5C16.6944 3.5 20.5 7.30558 20.5 12C20.5 16.6944 16.6944 20.5 12 20.5C7.30558 20.5 3.5 16.6944 3.5 12C3.5 7.30558 7.30558 3.5 12 3.5Z" fill="#888888"/>
</svg>
