<svg width="24" height="24" viewBox="0 0 24 24" fill="none" xmlns="http://www.w3.org/2000/svg">
<path d="M4.99818 3C4.26564 4.82717 3.48217 6.64379 2.81587 8.49621C2.59046 9.12288 2.7106 9.97984 3.10877 10.6602C3.31888 11.0192 3.61629 11.3471 4.00195 11.5887V21H20.002V11.5895C20.3882 11.3478 20.686 11.0195 20.8963 10.6602C21.2945 9.97984 21.4146 9.12288 21.1892 8.49621C20.5229 6.64379 19.7395 4.82717 19.0069 3H4.99818ZM5.50195 19.5V12.0001L5.50536 12.0001C6.46418 12.0001 7.16804 11.6087 7.64817 10.9981C8.08691 11.5611 8.77478 12.0001 9.75562 12.0001C10.7069 12.0001 11.4793 11.6281 12.0038 11.0024C12.5282 11.6281 13.3007 12.0001 14.252 12.0001C15.2319 12.0001 15.9194 11.562 16.3582 10.9997C16.8383 11.6094 17.5417 12.0001 18.4997 12.0001L18.502 12.0001V19.5H15.502V14H8.50195V19.5H5.50195ZM7.83942 4.50032C7.65478 5.41675 7.46997 6.33315 7.28746 7.25H4.89658C5.2631 6.33087 5.64536 5.41716 6.01275 4.50011L7.83942 4.50032ZM6.98968 8.75C6.8127 9.57308 6.49313 10.5001 5.50536 10.5001C4.92565 10.5001 4.59499 10.23 4.40335 9.9025C4.17579 9.51368 4.12195 9.15005 4.31961 8.75H6.98968ZM8.51995 8.75H11.252C11.252 9.67789 10.812 10.5001 9.75562 10.5001C8.80195 10.5001 8.35896 9.57022 8.51995 8.75ZM11.252 7.25H8.81757C9.00105 6.33326 9.18658 5.41682 9.37021 4.50014L11.252 4.50035V7.25ZM12.7556 8.75H15.4853C15.6471 9.57053 15.212 10.5001 14.252 10.5001C13.202 10.5001 12.7556 9.67789 12.7556 8.75ZM15.1876 7.25H12.7556V4.50035L14.6357 4.50014C14.8202 5.41665 15.0046 6.33318 15.1876 7.25ZM17.0154 8.75H19.6855C19.882 9.15005 19.8293 9.51368 19.6017 9.9025C19.4101 10.23 19.0794 10.5001 18.4997 10.5001C17.452 10.5001 17.1924 9.57308 17.0154 8.75ZM19.1085 7.25H16.7201C16.5377 6.33314 16.3529 5.41675 16.1682 4.50032L17.9923 4.50011C18.3597 5.4171 18.742 6.33093 19.1085 7.25ZM14.002 19.5H10.002V15.5H14.002V19.5Z" fill="#333333"/>
</svg>
