<svg width="20" height="20" viewBox="0 0 20 20" fill="none" xmlns="http://www.w3.org/2000/svg">
<path d="M14.4839 14.5078C11.8691 17.1225 7.446 16.9106 5.08196 14.0863L4.28375 14.8845C7.0857 18.1424 12.2312 18.3514 15.2794 15.3033C18.2085 12.3744 18.2085 7.62563 15.2794 4.6967C12.3504 1.76777 7.6014 1.76777 4.67232 4.6967C3.25847 6.11049 2.52707 7.94829 2.47815 9.80076L0.985446 8.30806L0.101562 9.19194L3.0435 12.1339L5.98545 9.19194L5.10156 8.30806L3.60348 9.80614C3.65083 8.23986 4.27228 6.68771 5.46782 5.49223C7.95755 3.00263 11.9942 3.00263 14.4839 5.49223C16.9736 7.98181 16.9736 12.0182 14.4839 14.5078Z" fill="#2758B9"/>
<path d="M10.6265 9.79167L13.0015 12.9583L12.0015 13.7083L9.37651 10.2083V5.83333H10.6265V9.79167Z" fill="#2758B9"/>
</svg>
