<svg width="16" height="16" viewBox="0 0 16 16" fill="none" xmlns="http://www.w3.org/2000/svg">
<path d="M11.1487 12.7128C12.667 11.6963 13.6672 9.96478 13.6672 7.99998C13.6672 4.47222 10.3473 1.76367 6.89357 2.4412L6.6995 1.46021C10.8007 0.665199 14.6672 3.84501 14.6672 7.99998C14.6672 10.3112 13.4914 12.3478 11.705 13.5438L11.1487 12.7128Z" fill="#888888"/>
<path d="M4.29648 2.45622C3.56947 2.94294 2.94353 3.56887 2.45681 4.29588L3.28778 4.8522C3.70178 4.23381 4.23441 3.70119 4.8528 3.28718L4.29648 2.45622Z" fill="#888888"/>
<path d="M1.46081 6.6989L2.4418 6.89297C2.30045 7.60744 2.30045 8.39253 2.4418 9.107L1.46081 9.30106C1.29431 8.45946 1.29431 7.54051 1.46081 6.6989Z" fill="#888888"/>
<path d="M4.29648 13.5438C3.56947 13.057 2.94353 12.4311 2.45681 11.7041L3.28778 11.1478C3.70178 11.7662 4.23441 12.2988 4.8528 12.7128L4.29648 13.5438Z" fill="#888888"/>
<path d="M6.6995 14.5398C7.54111 14.7063 8.46006 14.7063 9.30166 14.5398L9.10759 13.5588C8.39313 13.7001 7.60804 13.7001 6.89357 13.5588L6.6995 14.5398Z" fill="#888888"/>
<path d="M7.00062 11.0403L12.0208 6.02009L11.3137 5.31299L7.00062 9.6261L5.02084 7.64632L4.31373 8.35343L7.00062 11.0403Z" fill="#888888"/>
</svg>
